<mxfile host="app.diagrams.net" modified="2023-08-13T01:50:11.163Z" agent="Mozilla/5.0 (Windows NT 10.0; Win64; x64) AppleWebKit/537.36 (KHTML, like Gecko) Chrome/115.0.0.0 Safari/537.36 Edg/115.0.1901.203" etag="MTdgX_k2VKzKvz4YwXqC" version="21.6.6" type="github">
  <diagram name="Page-1" id="7m4uo4GMCayqNNpe3dpX">
    <mxGraphModel dx="1002" dy="541" grid="1" gridSize="10" guides="1" tooltips="1" connect="1" arrows="1" fold="1" page="1" pageScale="1" pageWidth="850" pageHeight="1100" math="0" shadow="0">
      <root>
        <mxCell id="0" />
        <mxCell id="1" parent="0" />
        <mxCell id="l_-5iuy91tXy2IB9srBs-10" style="edgeStyle=orthogonalEdgeStyle;rounded=0;orthogonalLoop=1;jettySize=auto;html=1;" edge="1" parent="1" source="l_-5iuy91tXy2IB9srBs-1" target="l_-5iuy91tXy2IB9srBs-9">
          <mxGeometry relative="1" as="geometry" />
        </mxCell>
        <mxCell id="l_-5iuy91tXy2IB9srBs-1" value="鸦片战争" style="rounded=0;whiteSpace=wrap;html=1;" vertex="1" parent="1">
          <mxGeometry x="180" y="250" width="120" height="60" as="geometry" />
        </mxCell>
        <mxCell id="l_-5iuy91tXy2IB9srBs-5" style="edgeStyle=orthogonalEdgeStyle;rounded=0;orthogonalLoop=1;jettySize=auto;html=1;entryX=0.5;entryY=0;entryDx=0;entryDy=0;" edge="1" parent="1" source="l_-5iuy91tXy2IB9srBs-3" target="l_-5iuy91tXy2IB9srBs-4">
          <mxGeometry relative="1" as="geometry" />
        </mxCell>
        <mxCell id="l_-5iuy91tXy2IB9srBs-3" value="英国资本主义经济发展" style="rounded=0;whiteSpace=wrap;html=1;" vertex="1" parent="1">
          <mxGeometry x="20" y="50" width="120" height="60" as="geometry" />
        </mxCell>
        <mxCell id="l_-5iuy91tXy2IB9srBs-6" style="edgeStyle=orthogonalEdgeStyle;rounded=0;orthogonalLoop=1;jettySize=auto;html=1;entryX=0;entryY=0.5;entryDx=0;entryDy=0;" edge="1" parent="1" source="l_-5iuy91tXy2IB9srBs-4" target="l_-5iuy91tXy2IB9srBs-1">
          <mxGeometry relative="1" as="geometry" />
        </mxCell>
        <mxCell id="l_-5iuy91tXy2IB9srBs-4" value="英国寻求海外市场" style="rounded=0;whiteSpace=wrap;html=1;" vertex="1" parent="1">
          <mxGeometry x="20" y="170" width="120" height="60" as="geometry" />
        </mxCell>
        <mxCell id="l_-5iuy91tXy2IB9srBs-8" style="edgeStyle=orthogonalEdgeStyle;rounded=0;orthogonalLoop=1;jettySize=auto;html=1;" edge="1" parent="1" source="l_-5iuy91tXy2IB9srBs-7" target="l_-5iuy91tXy2IB9srBs-1">
          <mxGeometry relative="1" as="geometry" />
        </mxCell>
        <mxCell id="l_-5iuy91tXy2IB9srBs-7" value="清政府闭关锁国" style="rounded=0;whiteSpace=wrap;html=1;" vertex="1" parent="1">
          <mxGeometry x="180" y="100" width="120" height="60" as="geometry" />
        </mxCell>
        <mxCell id="l_-5iuy91tXy2IB9srBs-14" style="edgeStyle=orthogonalEdgeStyle;rounded=0;orthogonalLoop=1;jettySize=auto;html=1;entryX=0;entryY=0.5;entryDx=0;entryDy=0;" edge="1" parent="1" source="l_-5iuy91tXy2IB9srBs-9" target="l_-5iuy91tXy2IB9srBs-13">
          <mxGeometry relative="1" as="geometry" />
        </mxCell>
        <mxCell id="l_-5iuy91tXy2IB9srBs-17" style="edgeStyle=orthogonalEdgeStyle;rounded=0;orthogonalLoop=1;jettySize=auto;html=1;entryX=0;entryY=0.5;entryDx=0;entryDy=0;" edge="1" parent="1" source="l_-5iuy91tXy2IB9srBs-9" target="l_-5iuy91tXy2IB9srBs-15">
          <mxGeometry relative="1" as="geometry">
            <Array as="points">
              <mxPoint x="240" y="520" />
            </Array>
          </mxGeometry>
        </mxCell>
        <mxCell id="l_-5iuy91tXy2IB9srBs-21" style="edgeStyle=orthogonalEdgeStyle;rounded=0;orthogonalLoop=1;jettySize=auto;html=1;entryX=0.5;entryY=0;entryDx=0;entryDy=0;" edge="1" parent="1" source="l_-5iuy91tXy2IB9srBs-9" target="l_-5iuy91tXy2IB9srBs-20">
          <mxGeometry relative="1" as="geometry">
            <Array as="points">
              <mxPoint x="120" y="400" />
            </Array>
          </mxGeometry>
        </mxCell>
        <mxCell id="l_-5iuy91tXy2IB9srBs-29" style="edgeStyle=orthogonalEdgeStyle;rounded=0;orthogonalLoop=1;jettySize=auto;html=1;entryX=0;entryY=0.5;entryDx=0;entryDy=0;" edge="1" parent="1" source="l_-5iuy91tXy2IB9srBs-9" target="l_-5iuy91tXy2IB9srBs-28">
          <mxGeometry relative="1" as="geometry" />
        </mxCell>
        <mxCell id="l_-5iuy91tXy2IB9srBs-9" value="鸦片战争失败" style="rounded=0;whiteSpace=wrap;html=1;" vertex="1" parent="1">
          <mxGeometry x="180" y="370" width="120" height="60" as="geometry" />
        </mxCell>
        <mxCell id="l_-5iuy91tXy2IB9srBs-16" style="edgeStyle=orthogonalEdgeStyle;rounded=0;orthogonalLoop=1;jettySize=auto;html=1;entryX=0.5;entryY=0;entryDx=0;entryDy=0;" edge="1" parent="1" source="l_-5iuy91tXy2IB9srBs-13" target="l_-5iuy91tXy2IB9srBs-15">
          <mxGeometry relative="1" as="geometry" />
        </mxCell>
        <mxCell id="l_-5iuy91tXy2IB9srBs-13" value="西方思想在中国的&lt;br&gt;传播" style="rounded=0;whiteSpace=wrap;html=1;" vertex="1" parent="1">
          <mxGeometry x="380" y="370" width="120" height="60" as="geometry" />
        </mxCell>
        <mxCell id="l_-5iuy91tXy2IB9srBs-19" style="edgeStyle=orthogonalEdgeStyle;rounded=0;orthogonalLoop=1;jettySize=auto;html=1;" edge="1" parent="1" source="l_-5iuy91tXy2IB9srBs-15" target="l_-5iuy91tXy2IB9srBs-18">
          <mxGeometry relative="1" as="geometry" />
        </mxCell>
        <mxCell id="l_-5iuy91tXy2IB9srBs-27" style="edgeStyle=orthogonalEdgeStyle;rounded=0;orthogonalLoop=1;jettySize=auto;html=1;entryX=1;entryY=0.75;entryDx=0;entryDy=0;" edge="1" parent="1" source="l_-5iuy91tXy2IB9srBs-15" target="l_-5iuy91tXy2IB9srBs-28">
          <mxGeometry relative="1" as="geometry">
            <Array as="points">
              <mxPoint x="530" y="520" />
              <mxPoint x="530" y="295" />
            </Array>
          </mxGeometry>
        </mxCell>
        <mxCell id="l_-5iuy91tXy2IB9srBs-15" value="洋务运动" style="rounded=0;whiteSpace=wrap;html=1;" vertex="1" parent="1">
          <mxGeometry x="380" y="490" width="120" height="60" as="geometry" />
        </mxCell>
        <mxCell id="l_-5iuy91tXy2IB9srBs-36" style="edgeStyle=orthogonalEdgeStyle;rounded=0;orthogonalLoop=1;jettySize=auto;html=1;entryX=0;entryY=0.5;entryDx=0;entryDy=0;" edge="1" parent="1" source="l_-5iuy91tXy2IB9srBs-18" target="l_-5iuy91tXy2IB9srBs-32">
          <mxGeometry relative="1" as="geometry" />
        </mxCell>
        <mxCell id="l_-5iuy91tXy2IB9srBs-18" value="洋务运动失败" style="rounded=0;whiteSpace=wrap;html=1;" vertex="1" parent="1">
          <mxGeometry x="380" y="610" width="120" height="60" as="geometry" />
        </mxCell>
        <mxCell id="l_-5iuy91tXy2IB9srBs-24" style="edgeStyle=orthogonalEdgeStyle;rounded=0;orthogonalLoop=1;jettySize=auto;html=1;entryX=0;entryY=0.5;entryDx=0;entryDy=0;" edge="1" parent="1" source="l_-5iuy91tXy2IB9srBs-20" target="l_-5iuy91tXy2IB9srBs-22">
          <mxGeometry relative="1" as="geometry" />
        </mxCell>
        <mxCell id="l_-5iuy91tXy2IB9srBs-20" value="日本明治维新" style="rounded=0;whiteSpace=wrap;html=1;" vertex="1" parent="1">
          <mxGeometry x="60" y="520" width="120" height="60" as="geometry" />
        </mxCell>
        <mxCell id="l_-5iuy91tXy2IB9srBs-23" style="edgeStyle=orthogonalEdgeStyle;rounded=0;orthogonalLoop=1;jettySize=auto;html=1;entryX=0;entryY=0.5;entryDx=0;entryDy=0;" edge="1" parent="1" source="l_-5iuy91tXy2IB9srBs-22" target="l_-5iuy91tXy2IB9srBs-18">
          <mxGeometry relative="1" as="geometry" />
        </mxCell>
        <mxCell id="l_-5iuy91tXy2IB9srBs-22" value="中日甲午战争" style="rounded=0;whiteSpace=wrap;html=1;" vertex="1" parent="1">
          <mxGeometry x="160" y="610" width="120" height="60" as="geometry" />
        </mxCell>
        <mxCell id="l_-5iuy91tXy2IB9srBs-33" style="edgeStyle=orthogonalEdgeStyle;rounded=0;orthogonalLoop=1;jettySize=auto;html=1;entryX=0.5;entryY=0;entryDx=0;entryDy=0;" edge="1" parent="1" source="l_-5iuy91tXy2IB9srBs-25" target="l_-5iuy91tXy2IB9srBs-32">
          <mxGeometry relative="1" as="geometry" />
        </mxCell>
        <mxCell id="l_-5iuy91tXy2IB9srBs-25" value="中国资产阶级发展" style="rounded=0;whiteSpace=wrap;html=1;" vertex="1" parent="1">
          <mxGeometry x="610" y="250" width="120" height="60" as="geometry" />
        </mxCell>
        <mxCell id="l_-5iuy91tXy2IB9srBs-31" style="edgeStyle=orthogonalEdgeStyle;rounded=0;orthogonalLoop=1;jettySize=auto;html=1;entryX=0;entryY=0.5;entryDx=0;entryDy=0;" edge="1" parent="1" source="l_-5iuy91tXy2IB9srBs-28" target="l_-5iuy91tXy2IB9srBs-25">
          <mxGeometry relative="1" as="geometry" />
        </mxCell>
        <mxCell id="l_-5iuy91tXy2IB9srBs-28" value="中国资本主义经济发展" style="rounded=0;whiteSpace=wrap;html=1;" vertex="1" parent="1">
          <mxGeometry x="380" y="250" width="120" height="60" as="geometry" />
        </mxCell>
        <mxCell id="l_-5iuy91tXy2IB9srBs-35" style="edgeStyle=orthogonalEdgeStyle;rounded=0;orthogonalLoop=1;jettySize=auto;html=1;entryX=0.5;entryY=0;entryDx=0;entryDy=0;" edge="1" parent="1" source="l_-5iuy91tXy2IB9srBs-32" target="l_-5iuy91tXy2IB9srBs-34">
          <mxGeometry relative="1" as="geometry" />
        </mxCell>
        <mxCell id="l_-5iuy91tXy2IB9srBs-32" value="维新变法运动" style="rounded=0;whiteSpace=wrap;html=1;" vertex="1" parent="1">
          <mxGeometry x="610" y="410" width="120" height="60" as="geometry" />
        </mxCell>
        <mxCell id="l_-5iuy91tXy2IB9srBs-42" style="edgeStyle=orthogonalEdgeStyle;rounded=0;orthogonalLoop=1;jettySize=auto;html=1;entryX=0.5;entryY=0;entryDx=0;entryDy=0;" edge="1" parent="1" source="l_-5iuy91tXy2IB9srBs-34" target="l_-5iuy91tXy2IB9srBs-41">
          <mxGeometry relative="1" as="geometry" />
        </mxCell>
        <mxCell id="l_-5iuy91tXy2IB9srBs-34" value="维新变法运动失败" style="rounded=0;whiteSpace=wrap;html=1;" vertex="1" parent="1">
          <mxGeometry x="610" y="510" width="120" height="60" as="geometry" />
        </mxCell>
        <mxCell id="l_-5iuy91tXy2IB9srBs-40" style="edgeStyle=orthogonalEdgeStyle;rounded=0;orthogonalLoop=1;jettySize=auto;html=1;entryX=1;entryY=0.5;entryDx=0;entryDy=0;" edge="1" parent="1" source="l_-5iuy91tXy2IB9srBs-38" target="l_-5iuy91tXy2IB9srBs-34">
          <mxGeometry relative="1" as="geometry">
            <Array as="points">
              <mxPoint x="890" y="540" />
            </Array>
          </mxGeometry>
        </mxCell>
        <mxCell id="l_-5iuy91tXy2IB9srBs-38" value="上层建筑与经济基础不匹配" style="shape=parallelogram;perimeter=parallelogramPerimeter;whiteSpace=wrap;html=1;fixedSize=1;" vertex="1" parent="1">
          <mxGeometry x="800" y="410" width="190" height="60" as="geometry" />
        </mxCell>
        <mxCell id="l_-5iuy91tXy2IB9srBs-41" value="辛亥革命" style="rounded=0;whiteSpace=wrap;html=1;" vertex="1" parent="1">
          <mxGeometry x="610" y="610" width="120" height="60" as="geometry" />
        </mxCell>
      </root>
    </mxGraphModel>
  </diagram>
</mxfile>
